# xmcd CD database file
#
# Track frame offsets:
#	150
#	14535
#	35528
#	56075
#	75250
#	97213
#	113793
#	131148
#	151440
#	175503
#
# Disc length: 2652 seconds
#
# Revision: 2
# Processed by: cddbd v1.5.2PL0 Copyright (c) Steve Scherf et al.
# Submitted via: CDex 1.70beta2
#
DISCID=7c0a5a0a
DTITLE=NIRGILIS - テニス
DYEAR=2003
DGENRE=Pop
TTITLE0=サンダー
TTITLE1=アカリ
TTITLE2=オドレミ
TTITLE3=JuJu
TTITLE4=ソプラノ
TTITLE5=NIRGILIS Feat. モユニジュモ (イルリメ) - サンダーII
TTITLE6=ヤングハロー
TTITLE7=コケティッシュ
TTITLE8=Righthand
TTITLE9=Kiss
EXTD=YEAR: 2003
EXTT0=
EXTT1=
EXTT2=
EXTT3=
EXTT4=
EXTT5=
EXTT6=
EXTT7=
EXTT8=
EXTT9=
PLAYORDER=
